<svg width="211" height="53" viewBox="0 0 211 53" fill="none" xmlns="http://www.w3.org/2000/svg">
<g id="Group 3442295">
<g id="Group 3442085">
<path id="TESTBOX" d="M24.02 1.27344V8.75922H16.604V51.2654H7.41603V8.75922H0V1.27344H24.02Z" fill="#062106"/>
<path id="TESTBOX_2" d="M48.7222 43.7797V51.2654H28.9023V1.27344H47.344V8.75922H37.7622V22.2987H46.2283V29.2637H37.7622V43.7797H48.7222Z" fill="#062106"/>
<path id="TESTBOX_3" d="M75.4888 38.1151C75.4888 47.2282 71.9448 52.2404 63.7413 52.2404C60.3286 52.2404 57.6378 51.3291 55.6033 49.4414C53.5688 47.5537 52.5844 44.1688 52.5844 39.2868C52.5844 37.2689 53.1751 34.0142 53.7001 32.2566L61.5755 31.9312C61.313 33.9491 60.9849 36.7481 60.9849 38.8962C60.9849 44.4292 61.7724 46.1216 63.8069 46.1216C64.5944 46.1216 65.1851 45.731 65.6445 44.9499C66.1039 44.1688 66.3008 42.4113 66.3008 39.6122C66.3008 36.0972 65.907 33.6236 65.0538 32.2566C64.2663 30.8246 62.8225 29.5227 60.788 28.351L58.491 27.0491C53.5032 24.185 51.7969 19.1728 51.7969 13.3794C51.7969 4.85216 55.7346 0.425781 62.8225 0.425781C69.8447 0.425781 73.5199 4.33141 73.5199 11.6219C73.5199 13.3794 73.1918 15.2021 72.8636 16.8294L65.1195 17.6105C65.3164 16.2436 65.5789 13.6398 65.5789 12.1427C65.5789 7.45591 65.0538 5.95875 62.9537 5.95875C60.9192 5.95875 60.6567 7.84647 60.6567 11.4266C60.6567 14.2257 61.0505 16.1785 61.838 17.3502C62.6912 18.4568 63.7413 19.4332 64.9882 20.1492L67.7446 21.7114C72.4042 24.3152 75.4888 29.1972 75.4888 38.1151Z" fill="#062106"/>
<path id="TESTBOX_4" d="M100.536 1.27344V8.75922H93.1196V51.2654H83.9317V8.75922H76.5156V1.27344H100.536Z" fill="#062106"/>
<path id="TESTBOX_5" d="M129.433 37.1401C129.433 47.49 124.773 51.2654 116.897 51.2654H105.609V1.27344H116.963C121.295 1.27344 124.182 2.51022 125.692 4.98378C127.201 7.39225 127.989 10.7771 127.989 15.0082C127.989 21.0619 125.757 24.4468 121.754 24.6421C126.151 24.6421 129.433 29.0685 129.433 37.1401ZM120.048 36.1637C120.048 30.6958 119.391 27.7666 116.504 27.7666H114.338V45.407H116.635C118.013 45.407 118.866 44.8212 119.326 43.6495C119.785 42.4127 120.048 39.9391 120.048 36.1637ZM119.391 15.1384C119.391 9.34506 118.801 7.13187 115.913 7.13187H114.338V21.5176H116.569C118.866 21.5176 119.391 19.3695 119.391 15.1384Z" fill="#062106"/>
<path id="TESTBOX_6" d="M202.863 25.1628L211.001 51.2654H201.156L197.022 35.9684L193.872 51.2654H185.34L192.231 25.0978L186.062 1.27344H195.578L198.728 14.6827L201.944 1.27344H210.607L202.863 25.1628Z" fill="#062106"/>
<g id="Group 3442051">
<path id="Vector" d="M160.204 0.285156C158.52 0.285156 156.66 0.764828 156.129 1.00468L139.917 8.01999C139.917 8.01999 138.276 8.61724 137.348 9.81878C136.42 11.0203 136.285 12.3371 136.285 13.1466C136.285 13.956 136.285 24.0293 136.285 24.0293C135.263 24.552 134.123 25.3666 133.578 26.266C132.869 27.4352 132.16 29.4292 133.046 31.3179C134.199 33.2123 135.44 34.0242 136.285 34.7322V39.7687C136.356 40.776 136.631 41.2978 136.817 41.5675C137.003 41.8374 137.703 42.9167 139.563 43.906L155.243 50.9213C157.546 52.0905 161.445 52.1805 163.659 51.2811L170.125 48.4929L180.136 44.0858C181.27 43.5821 182.263 42.6767 182.616 42.287C183.325 41.4237 183.769 40.3984 183.769 39.229V12.7868C183.68 11.3478 183.105 10.4484 182.705 9.90872C182.48 9.60345 181.908 8.91938 179.694 7.84011L165.253 1.45437C163.057 0.44705 161.887 0.285156 160.204 0.285156Z" fill="#062106"/>
<path id="Vector_2" d="M160.039 1.57422C158.449 1.57422 156.694 2.02991 156.191 2.25776L140.884 8.92231C140.884 8.92231 139.353 9.47102 138.458 10.6312C137.563 11.7913 137.454 13.0236 137.454 13.7926C137.454 14.5616 137.439 25.2708 137.439 25.2708C136.005 25.2708 134.908 26.14 134.359 26.9891C133.716 27.9839 133.273 29.7025 134.248 31.24C135.4 32.7776 136.73 33.7725 137.454 33.9533V39.0836C137.521 40.0407 137.78 40.5362 137.956 40.7925C138.132 41.0489 138.793 42.0742 140.549 43.014L155.354 49.6785C157.529 50.7894 161.21 50.8747 163.301 50.0203L169.409 47.3716L178.86 43.1849C179.931 42.7065 180.867 41.8463 181.203 41.476C181.871 40.6557 182.29 39.6818 182.29 38.5711V13.4508C182.207 12.0837 181.663 11.2293 181.286 10.7166C181.073 10.4266 180.533 9.77674 178.442 8.75143L164.807 2.68498C162.732 1.72802 161.629 1.57422 160.039 1.57422Z" fill="#62CCAE"/>
<path id="Vector_3" d="M137.456 23.7148C137.867 23.8369 139.019 24.3975 139.089 25.6418C139.266 30.1379 139.089 30.6885 137.94 32.1566C137.813 32.3196 137.587 32.5165 137.471 33.0742V34.8951H136.22V32.5165C136.22 32.2421 136.308 31.8762 136.661 31.5103C137.102 31.0528 137.642 30.3214 137.764 29.4039C137.852 27.9357 137.764 26.5594 137.675 25.7335C137.616 25.1793 136.88 25.183 136.4 25.3665L135.946 25.5012C135.876 25.5326 135.818 25.5555 135.781 25.55L137.456 23.7148Z" fill="#062106"/>
<path id="Vector_4" d="M145.379 15.9666C145.113 17.5535 143.929 18.5904 142.822 18.2935C141.716 17.9965 141.226 16.4734 141.593 14.8913C141.902 13.5561 142.97 12.3476 144.15 12.5644C145.256 12.8614 145.674 14.2068 145.379 15.9666Z" fill="#062106"/>
<path id="Vector_5" d="M156.669 12.4159C156.223 14.2135 154.919 15.4018 153.594 15.0705C152.269 14.7392 151.69 13.013 152.137 11.2154C152.799 9.49058 153.983 8.41841 155.282 8.72927C156.607 9.06052 157.118 10.6183 156.669 12.4159Z" fill="#062106"/>
<path id="Vector_6" d="M142.358 23.0108C141.647 23.2201 141.177 24.0992 141.177 24.8211L141.043 29.6199C141.043 36.9294 144.55 39.9977 146.918 40.9904C150.916 42.3621 154.038 39.4562 155.159 37.7417C157.224 34.5833 157.878 29.5278 157.878 26.3714V22.6714C157.878 21.2275 156.975 20.969 156.586 20.929C155.885 20.8568 155.006 21.3521 154.655 21.5626C153.602 22.1949 151.526 23.5735 150.53 24.097C148.95 24.9275 147.194 25.0217 146.317 24.8211C145.686 24.6766 144.989 24.1603 144.463 23.7543C143.621 23.1046 143.07 22.8016 142.358 23.0108Z" fill="#062106"/>
<path id="Vector_7" d="M156.409 32.1282C148.878 31.7697 145.865 35.7423 144.625 38.0424C146.822 40.6233 149.907 40.462 150.916 40.0139C154.637 38.3617 156.054 34.0099 156.409 32.1282Z" fill="#D7F5EC"/>
<path id="Vector_8" fill-rule="evenodd" clip-rule="evenodd" d="M160.828 1.57422C161.293 1.86943 161.805 2.53468 161.805 3.82322V20.4946C162.081 20.4222 162.551 20.4644 162.751 20.4946L162.923 4.27625C162.923 3.85343 162.923 3.18899 163.266 2.82657C163.506 2.57414 163.816 2.42645 164.195 2.43488C162.815 1.82426 161.886 1.62644 160.828 1.57422Z" fill="#D7F5EC"/>
<path id="Vector_9" d="M162.033 43.8758L161.875 33.3945C162.112 33.7532 162.35 33.9228 162.506 33.9228L162.35 43.8758C162.35 44.0552 162.291 44.1447 162.191 44.1447C162.09 44.1447 162.033 44.0552 162.033 43.8758Z" fill="url(#paint0_linear_667_413)"/>
<path id="Vector_10" d="M160.207 27.1919C160.295 29.6446 161.398 30.3518 161.892 30.7454V33.4691C162.032 34.1231 162.657 34.1167 162.943 33.9234C164.552 32.8333 165.899 31.6566 167.126 29.6521C168.089 27.6475 167.826 25.1846 167.389 24.2762C166.905 23.2739 166.337 22.4539 165.024 21.4516C163.886 20.5404 162.548 20.3963 161.783 20.5404C160.821 20.7221 160.382 21.5469 160.295 22.9095L160.207 27.1919Z" fill="#062106"/>
<path id="Vector_11" d="M161.529 23.9067L161.465 27.1646C161.529 28.5993 162.321 29.4503 162.832 29.8627C163.111 30.1175 163.114 30.4052 163.135 30.7651V31.6065C163.135 31.9332 163.262 31.9323 163.374 31.8432C164.397 31.0358 165.615 29.9948 166.222 28.4188C166.57 27.5191 166.73 25.7116 165.999 24.6287C164.952 23.0743 163.769 21.8968 162.573 22.0116C161.712 22.0943 161.529 23.0601 161.529 23.9067Z" fill="#62CCAE"/>
</g>
</g>
</g>
<defs>
<linearGradient id="paint0_linear_667_413" x1="162.191" y1="33.4746" x2="162.191" y2="44.9518" gradientUnits="userSpaceOnUse">
<stop stop-color="#D7F5EC"/>
<stop offset="1" stop-color="#D7F5EC" stop-opacity="0"/>
</linearGradient>
</defs>
</svg>