<?xml version="1.0" encoding="UTF-8" standalone="no"?>
<!-- Created with Inkscape (http://www.inkscape.org/) -->

<svg
   version="1.1"
   id="svg1"
   width="134.17613"
   height="156.71056"
   viewBox="0 0 134.17613 156.71056"
   sodipodi:docname="micenas.svg"
   inkscape:version="1.1.2 (0a00cf5339, 2022-02-04)"
   xmlns:inkscape="http://www.inkscape.org/namespaces/inkscape"
   xmlns:sodipodi="http://sodipodi.sourceforge.net/DTD/sodipodi-0.dtd"
   xmlns="http://www.w3.org/2000/svg"
   xmlns:svg="http://www.w3.org/2000/svg">
  <defs
     id="defs1">
    <clipPath
       clipPathUnits="userSpaceOnUse"
       id="clipPath2">
      <path
         d="M 0,0 H 1562.5 V 1562.5 H 0 Z"
         transform="scale(0.31999999)"
         clip-rule="evenodd"
         id="path2" />
    </clipPath>
    <clipPath
       clipPathUnits="userSpaceOnUse"
       id="clipPath4">
      <path
         d="M 0,0 H 1562.5 V 1562.5 H 0 Z"
         transform="scale(0.31999999)"
         clip-rule="evenodd"
         id="path4" />
    </clipPath>
    <clipPath
       clipPathUnits="userSpaceOnUse"
       id="clipPath6">
      <path
         d="M 0,0 H 1562.5 V 1562.5 H 0 Z"
         transform="matrix(0.31999999,0,0,0.31999999,-160.49579,-322.46305)"
         clip-rule="evenodd"
         id="path6" />
    </clipPath>
    <clipPath
       clipPathUnits="userSpaceOnUse"
       id="clipPath8">
      <path
         d="M 0,0 H 1562.5 V 1562.5 H 0 Z"
         transform="matrix(0.31999999,0,0,0.31999999,-158.30002,-354.03842)"
         clip-rule="evenodd"
         id="path8" />
    </clipPath>
    <clipPath
       clipPathUnits="userSpaceOnUse"
       id="clipPath10">
      <path
         d="m 535.9516,438.09872 h 490.6251 V 872.47375 H 535.9516 Z"
         transform="matrix(1.0816816,0,0,1.0817892,-579.72898,-474.08158)"
         clip-rule="evenodd"
         id="path10" />
    </clipPath>
  </defs>
  <sodipodi:namedview
     id="namedview1"
     pagecolor="#ffffff"
     bordercolor="#666666"
     borderopacity="1.0"
     inkscape:showpageshadow="2"
     inkscape:pageopacity="0.0"
     inkscape:pagecheckerboard="0"
     inkscape:deskcolor="#d1d1d1"
     showgrid="false"
     inkscape:zoom="1.548"
     inkscape:cx="66.537468"
     inkscape:cy="71.382429"
     inkscape:window-width="1920"
     inkscape:window-height="1016"
     inkscape:window-x="0"
     inkscape:window-y="27"
     inkscape:window-maximized="1"
     inkscape:current-layer="g1"
     inkscape:pageshadow="2">
    <inkscape:page
       x="0"
       y="0"
       inkscape:label="1"
       id="page1"
       width="134.17613"
       height="156.71056"
       margin="0"
       bleed="0" />
  </sodipodi:namedview>
  <g
     id="g1"
     inkscape:groupmode="layer"
     inkscape:label="1"
     transform="translate(-183.79294,-174.65644)">
    <g
       id="g4" />
    <path
       id="path5"
       d="m 30.312808,0.00179159 h -3.96875 l -0.03125,-19.06250059 -8.0625,16.4062505 H 15.453433 L 7.3909323,-19.060709 V 0.00179159 H 3.3596821 V -25.498209 h 5.0937502 l 8.4218757,16.9375002 8.375,-16.9375002 h 5.0625 z m 12.140626,0 H 38.156559 V -25.498209 h 4.296875 z M 61.535466,-25.607584 c 1.800781,0 3.554687,0.351562 5.265625,1.046875 1.71875,0.6875 3.195313,1.648437 4.4375,2.875 l -2.515625,3.140625 c -0.929687,-1 -2.023438,-1.789063 -3.28125,-2.375 -1.261719,-0.582032 -2.539063,-0.875 -3.828125,-0.875 -2.554688,0 -4.710938,0.871093 -6.46875,2.609375 -1.761719,1.742187 -2.640626,3.859375 -2.640626,6.359375 0,2.53125 0.878907,4.667969 2.640626,6.4062503 1.757812,1.7304688 3.914062,2.5937501 6.46875,2.5937501 2.644531,0 5.015625,-1.0039063 7.109375,-3.0156251 l 2.546875,2.8281251 c -1.3125,1.2929688 -2.84375,2.3203126 -4.59375,3.07812515 -1.75,0.75000003 -3.511719,1.12500004 -5.28125,1.12500004 -3.742188,0 -6.886719,-1.24218759 -9.437501,-3.73437519 -2.554687,-2.4882813 -3.828125,-5.5703127 -3.828125,-9.2500004 0,-3.613281 1.289063,-6.648438 3.875,-9.109375 2.59375,-2.46875 5.769532,-3.703125 9.531251,-3.703125 z m 33.429689,3.96875 H 81.043279 v 6.890625 h 12.453126 v 3.859375 H 81.043279 v 7.0312504 H 95.402655 V 0.00179159 H 76.746404 V -25.498209 H 94.965155 Z M 123.85187,0.00179159 h -4.21875 L 106.03937,-18.295084 V 0.00179159 H 101.7425 V -25.498209 h 4.21875 l 13.67187,18.3281253 V -25.498209 h 4.21875 z m 24.3086,-5.75000029 h -12.875 l -2.4375,5.75000029 h -4.48438 L 139.62922,-25.498209 h 4.40625 l 11.15625,25.50000059 h -4.59375 z m -1.64063,-3.8281251 -4.8125,-11.3437502 -4.8125,11.3437502 z M 168.0511,-25.685709 c 3.30078,0 6.27343,0.875 8.92187,2.625 l -1.78125,3.78125 c -2.60547,-1.570313 -5.09375,-2.359375 -7.46875,-2.359375 -1.29297,0 -2.30859,0.230468 -3.04687,0.6875 -0.74219,0.460937 -1.10938,1.117187 -1.10938,1.96875 0,0.855469 0.33594,1.578125 1.01563,2.171875 0.6875,0.59375 1.53906,1.03125 2.5625,1.3125 1.01953,0.28125 2.125,0.636719 3.3125,1.0625 1.1875,0.417969 2.28906,0.867188 3.3125,1.34375 1.01953,0.46875 1.86328,1.210938 2.53125,2.21875 0.66406,1.0117189 1,2.230469 1,3.6562503 0,2.2421876 -0.89844,4.0273439 -2.6875,5.3593752 -1.78125,1.33593756 -4.08985,2.00000009 -6.92188,2.00000009 -1.94922,0 -3.83594,-0.36328126 -5.65625,-1.09375004 -1.82422,-0.72656255 -3.41406,-1.71093755 -4.76563,-2.95312515 l 1.85938,-3.7031251 c 1.28125,1.1875 2.69141,2.1054688 4.23438,2.7500001 1.53906,0.6367188 3.0039,0.953125 4.39062,0.953125 1.50781,0 2.67969,-0.2695312 3.51563,-0.8125 0.84375,-0.5390625 1.26562,-1.3007813 1.26562,-2.2812501 0,-0.875 -0.34375,-1.6093751 -1.03125,-2.2031251 -0.67969,-0.59375 -1.52734,-1.0312502 -2.54687,-1.3125002 -1.02344,-0.28125 -2.125,-0.617187 -3.3125,-1.015625 -1.1875,-0.40625 -2.29297,-0.832031 -3.31251,-1.28125 -1.02343,-0.445312 -1.875,-1.164062 -2.5625,-2.15625 -0.67968,-1 -1.01562,-2.203125 -1.01562,-3.609375 0,-2.164063 0.84766,-3.890625 2.54687,-5.171875 1.70704,-1.289063 3.95704,-1.9375 6.75001,-1.9375 z m 0,0"
       style="fill:#000000;fill-opacity:1;fill-rule:nonzero;stroke:none"
       aria-label="MICENAS"
       transform="matrix(0.66954284,0,0,0.66954284,190.40094,302.91292)"
       clip-path="url(#clipPath6)" />
    <g
       id="g6" />
    <path
       id="path7"
       d="M 12.703886,-13.249362 H 7.7663863 V 6.3885163e-4 H 5.1257612 V -13.249362 H 0.20388597 v -2.359375 H 12.703886 Z m 17.265626,0 h -8.515625 v 4.2187505 h 7.625 v 2.3593751 h -7.625 v 4.3125002 h 8.78125 V 6.3885163e-4 H 18.813262 V -15.608737 h 11.15625 z m 14.250001,-2.421875 c 1.09375,0 2.160156,0.214844 3.203125,0.640625 1.050781,0.417969 1.957031,1.007813 2.71875,1.765625 l -1.53125,1.921875 c -0.5625,-0.613281 -1.234375,-1.097656 -2.015625,-1.453125 -0.773438,-0.351562 -1.546875,-0.53125 -2.328125,-0.53125 -1.5625,0 -2.886719,0.53125 -3.96875,1.59375 -1.074219,1.0625 -1.609375,2.3593755 -1.609375,3.8906255 0,1.5429688 0.535156,2.8437501 1.609375,3.9062502 1.082031,1.0625 2.40625,1.5937501 3.96875,1.5937501 1.613281,0 3.0625,-0.6132813 4.34375,-1.8437501 l 1.5625,1.734375 c -0.804687,0.7929688 -1.742188,1.4179689 -2.8125,1.87500013 -1.074219,0.46093752 -2.152344,0.68750003 -3.234375,0.68750003 -2.292969,0 -4.21875,-0.75781254 -5.78125,-2.28125006 -1.554688,-1.5195314 -2.328126,-3.4062502 -2.328126,-5.6562503 0,-2.2187505 0.785157,-4.0781255 2.359376,-5.5781255 1.582031,-1.507812 3.53125,-2.265625 5.84375,-2.265625 z M 70.231233,6.3885163e-4 H 67.653108 L 59.340607,-11.186862 V 6.3885163e-4 H 56.699982 V -15.608737 h 2.59375 l 8.359376,11.2187507 V -15.608737 h 2.578125 z M 79.309358,-13.405612 c 1.59375,-1.507812 3.554688,-2.265625 5.890625,-2.265625 2.332032,0 4.289063,0.757813 5.875001,2.265625 1.59375,1.5 2.390625,3.371094 2.390625,5.6093755 0,2.2304689 -0.796875,4.1054689 -2.390625,5.6250003 -1.585938,1.52343752 -3.542969,2.28125006 -5.875001,2.28125006 -2.335937,0 -4.296875,-0.75781254 -5.890625,-2.28125006 -1.585938,-1.5195314 -2.375,-3.3945314 -2.375,-5.6250003 0,-2.2382815 0.789062,-4.1093755 2.375,-5.6093755 z m 5.90625,0.09375 c -1.542969,0 -2.867187,0.53125 -3.96875,1.59375 -1.09375,1.0625 -1.640625,2.3710942 -1.640625,3.9218755 0,1.5429688 0.550781,2.8554689 1.65625,3.9375002 1.101563,1.0742188 2.421875,1.6093751 3.953125,1.6093751 1.53125,0 2.835938,-0.5351563 3.921875,-1.6093751 1.09375,-1.0820313 1.640625,-2.3945314 1.640625,-3.9375002 0,-1.5507813 -0.546875,-2.8593755 -1.640625,-3.9218755 -1.085937,-1.0625 -2.390625,-1.59375 -3.921875,-1.59375 z M 102.7742,-2.3899862 h 6.75 V 6.3885163e-4 h -9.39062 V -15.608737 h 2.64062 z m 14.21875,-11.0156258 c 1.59375,-1.507812 3.55469,-2.265625 5.89063,-2.265625 2.33203,0 4.28906,0.757813 5.875,2.265625 1.59375,1.5 2.39062,3.371094 2.39062,5.6093755 0,2.2304689 -0.79687,4.1054689 -2.39062,5.6250003 -1.58594,1.52343752 -3.54297,2.28125006 -5.875,2.28125006 -2.33594,0 -4.29688,-0.75781254 -5.89063,-2.28125006 -1.58593,-1.5195314 -2.375,-3.3945314 -2.375,-5.6250003 0,-2.2382815 0.78907,-4.1093755 2.375,-5.6093755 z m 5.90625,0.09375 c -1.54297,0 -2.86718,0.53125 -3.96875,1.59375 -1.09375,1.0625 -1.64062,2.3710942 -1.64062,3.9218755 0,1.5429688 0.55078,2.8554689 1.65625,3.9375002 1.10156,1.0742188 2.42187,1.6093751 3.95312,1.6093751 1.53125,0 2.83594,-0.5351563 3.92188,-1.6093751 1.09375,-1.0820313 1.64062,-2.3945314 1.64062,-3.9375002 0,-1.5507813 -0.54687,-2.8593755 -1.64062,-3.9218755 -1.08594,-1.0625 -2.39063,-1.59375 -3.92188,-1.59375 z m 25.60547,5.6406255 h 2.29688 v 5.7500003 c -0.80469,0.6171875 -1.75,1.10937502 -2.84375,1.48437503 -1.09375,0.36718752 -2.16797,0.54687503 -3.21875,0.54687503 -2.3125,0 -4.26172,-0.75781254 -5.84375,-2.28125006 -1.57422,-1.5195314 -2.35938,-3.3945314 -2.35938,-5.6250003 0,-2.2382815 0.80078,-4.1093755 2.40625,-5.6093755 1.60157,-1.507812 3.58594,-2.265625 5.95313,-2.265625 1.09375,0 2.17187,0.199219 3.23437,0.59375 1.0625,0.386719 1.98438,0.917969 2.76563,1.59375 l -1.5,1.9375 c -1.28125,-1.1875 -2.78125,-1.78125 -4.5,-1.78125 -1.59375,0 -2.94531,0.539063 -4.04688,1.609375 -1.09375,1.0625 -1.64062,2.3710942 -1.64062,3.9218755 0,1.5546876 0.55078,2.8671876 1.65625,3.9375002 1.10156,1.0742188 2.45312,1.6093751 4.04687,1.6093751 1.20703,0 2.40625,-0.3593751 3.59375,-1.0781251 z m 12.51172,7.67187535163 h -2.64062 V -15.608737 h 2.64062 z M 179.04374,-3.5149863 h -7.85938 l -1.5,3.51562515163 h -2.75 L 173.82499,-15.608737 h 2.70312 l 6.82813,15.60937585163 h -2.8125 z m -1,-2.3437501 -2.9375,-6.9375006 -2.95313,6.9375006 z m 0,0"
       style="fill:#000000;fill-opacity:1;fill-rule:nonzero;stroke:none"
       aria-label="TECNOLOGIA"
       transform="matrix(0.66954284,0,0,0.66954284,189.43032,324.05399)"
       clip-path="url(#clipPath8)" />
    <path
       id="path9"
       d="m 217.52,198.89 23.91001,16.33 c 1.22999,-2.24 3.61,-3.75999 6.33999,-3.75999 h 36.46001 c 3.97,0 7.22,3.25 7.22,7.22 v 36.47 c 0,3.96999 -3.25,7.21001 -7.22,7.21001 H 266.56 L 251.20999,292.63 H 254.28 c 5.10998,0 9.28,4.17002 9.28,9.28 v 20.26999 l 51.5,0.84 v -1.26001 c 0,-3.01999 2.47,-5.5 5.5,-5.5 h 27.78 c 3.03,0 5.5,2.47 5.5,5.5 v 27.79001 c 0,3.01999 -2.47,5.5 -5.5,5.5 h -27.78 c -3.03,0 -5.5,-2.47 -5.5,-5.5 V 336.72 l -51.5,-0.84 v 12.93 c 0,5.10998 -4.17002,9.28 -9.28,9.28 h -46.89 c -5.11,0 -9.28,-4.17002 -9.28,-9.28 v -46.89002 c 0,-5.10998 4.17,-9.28 9.28,-9.28 h 28.45 L 251.19,262.37 h -3.42 c -3.97999,0 -7.22,-3.24 -7.22,-7.21001 v -23.93001 l -24.42,-16.67999 c -1.96,3.58 -5.75999,6.02 -10.11,6.02 h -58.16 c -6.34,0 -11.50999,-5.17999 -11.50999,-11.52 v -58.16001 c 0,-6.33999 5.17999,-11.50999 11.50999,-11.50999 h 58.16 c 6.34,0 11.51,5.17999 11.51,11.50999 V 198.89 Z M 89.980003,127.24 58.170006,167.34 v 39.50999 c 0,1.92999 -0.669998,3.7 -1.790001,5.11 l 22.900001,27.37 h 40.080004 c 6.34,0 11.51,5.17999 11.51,11.52 v 58.15999 c 0,6.34 -5.18,11.51999 -11.51,11.51999 H 61.200001 c -6.34,0 -11.509999,-5.17999 -11.509999,-11.51999 v -58.16 c 0,-6.34 5.180001,-11.52001 11.510003,-11.52001 h 0.189998 L 41.110001,215.10001 H 8.2399998 C 3.71,215.10001 0,211.39 0,206.86 v -41.68001 c 0,-4.53 3.71,-8.24 8.2399998,-8.24 H 48.909996 l 23.860001,-30.08001 c -4.909996,-1.30999 -8.550003,-5.80999 -8.550003,-11.12 V 57.57 c 0,-6.34 5.18,-11.520001 11.510002,-11.520001 H 133.89 c 6.34,0 11.50999,5.180001 11.50999,11.520001 v 58.16 c 0,6.33999 -5.17999,11.51 -11.50999,11.51 z m 285.789987,286.6 35.67001,-39.43 -0.01,-0.47 v -66.83999 c 0,-3.57001 1.43,-6.81 3.73999,-9.19001 l -18.78,-21.78 c -0.63,0.10999 -1.29,0.16001 -1.95001,0.16001 h -58.17001 c -6.34,0 -11.51001,-5.17999 -11.51001,-11.51999 v -58.16 c 0,-6.34 5.17999,-11.51 11.51001,-11.51 h 58.16998 c 6.34,0 11.51001,5.17999 11.51001,11.51 v 58.16 c 0,0.47 -0.03,0.92999 -0.08,1.39001 l 23.88999,27.72001 h 61.70999 c 7.28,0 13.22,5.95001 13.22,13.22 v 66.83001 c 0,7.26999 -5.95001,13.22 -13.22,13.22 h -66.82999 c -1.86999,0 -3.67001,-0.39999 -5.29,-1.10998 l -32.79999,36.26001 v 39.38 c 0,4.35001 -3.56,7.9 -7.9,7.9 h -39.94 c -4.35001,0 -7.89999,-3.54999 -7.89999,-7.9 v -39.94 c 0,-4.35 3.55999,-7.89999 7.89999,-7.89999 h 37.06003 z m 110.28,-226.61 -21.70001,-41.84 h -28.78 c -4.63001,0 -8.41001,-3.78 -8.41001,-8.41 V 94.459999 c 0,-4.629997 3.78,-8.409996 8.41001,-8.409996 h 42.51999 c 4.63,0 8.41,3.779999 8.41,8.410004 v 42.520003 c 0,4.08 -2.92999,7.5 -6.79999,8.25999 l 21.78,41.99001 h 20.84998 c 4.63,0 8.40997,3.78 8.40997,8.41 v 42.52001 c 0,4.63 -3.78003,8.41 -8.40997,8.41 h -42.51999 c -4.63001,0 -8.41001,-3.78 -8.41001,-8.41 v -42.52001 c 0,-4.63 3.78,-8.41 8.41001,-8.41 h 6.24002 z M 216.31,0 h 58.16 c 6.34,0 11.51001,5.1799998 11.51001,11.51 v 58.17 c 0,6.340004 -5.17999,11.510002 -11.51001,11.510002 H 263.62 L 275.70999,110.9 H 306.03 c 0.54999,0 1.07001,0.05 1.57999,0.15 L 325.91998,95.590004 C 323.70999,93.490005 322.32999,90.530006 322.32999,87.25 V 29.09 c 0,-6.34 5.17999,-11.52 11.51001,-11.52 h 58.17001 c 6.34,0 11.51001,5.18 11.51001,11.52 v 58.16 c 0,6.339996 -5.17999,11.510002 -11.51001,11.510002 H 343.41 L 314.42999,123.23 v 38.6 c 0,4.63001 -3.78,8.41001 -8.41,8.41001 H 263.5 c -4.63,0 -8.41,-3.78 -8.41,-8.41001 v -42.52 c 0,-3.78 2.51001,-6.99 5.95001,-8.05 l -12.25,-30.070005 H 216.3 c -6.33999,0 -11.52,-5.18 -11.52,-11.510002 V 11.51 C 204.8,5.1799998 209.98,0 216.31,0 Z"
       style="fill:#248fef;fill-opacity:1;fill-rule:evenodd;stroke:none"
       transform="matrix(0.19807465,0,0,0.19805494,198.32188,180.90429)"
       clip-path="url(#clipPath10)" />
  </g>
</svg>
